<svg width="19" height="23" viewBox="0 0 19 23" fill="none" xmlns="http://www.w3.org/2000/svg">
<g clip-path="url(#clip0_2_236)">
<path d="M18.2424 3.79587C18.7897 3.18493 18.7025 2.27751 18.0438 1.76989C17.385 1.26227 16.4065 1.34313 15.8591 1.95407L9.30048 9.25387L2.74181 1.95407C2.19445 1.34313 1.21598 1.26227 0.557204 1.76989C-0.101569 2.27751 -0.188759 3.18493 0.358604 3.79587L7.28056 11.5L0.358604 19.2041C-0.188759 19.815 -0.101569 20.7224 0.557204 21.23C1.21598 21.7377 2.19445 21.6568 2.74181 21.0459L9.30048 13.7461L15.8591 21.0459C16.4065 21.6568 17.385 21.7377 18.0438 21.23C18.7025 20.7224 18.7897 19.815 18.2424 19.2041L11.3204 11.5L18.2424 3.79587Z" fill="#FF7B54"/>
</g>
<defs>
<clipPath id="clip0_2_236">
<rect width="18.6006" height="23" fill="white"/>
</clipPath>
</defs>
</svg>
