<svg width="34" height="30" viewBox="0 0 34 30" fill="none" xmlns="http://www.w3.org/2000/svg">
<g clip-path="url(#clip0_5_286)">
<path d="M0 1.40625C0 0.626953 0.631597 0 1.41667 0H4.10243C5.40104 0 6.55208 0.75 7.08924 1.875H31.3497C32.9021 1.875 34.0354 3.33984 33.6281 4.82813L31.208 13.752C30.7062 15.5918 29.024 16.875 27.1056 16.875H10.076L10.3948 18.5449C10.5247 19.207 11.109 19.6875 11.7878 19.6875H28.8056C29.5906 19.6875 30.2222 20.3145 30.2222 21.0938C30.2222 21.873 29.5906 22.5 28.8056 22.5H11.7878C9.74549 22.5 7.99236 21.0586 7.61458 19.0723L4.56875 3.19336C4.52743 2.9707 4.33264 2.8125 4.10243 2.8125H1.41667C0.631597 2.8125 0 2.18555 0 1.40625ZM7.55556 27.1875C7.55556 26.8182 7.62884 26.4524 7.77123 26.1112C7.91362 25.77 8.12232 25.4599 8.38542 25.1988C8.64852 24.9376 8.96086 24.7304 9.30462 24.5891C9.64837 24.4477 10.0168 24.375 10.3889 24.375C10.761 24.375 11.1294 24.4477 11.4732 24.5891C11.8169 24.7304 12.1293 24.9376 12.3924 25.1988C12.6555 25.4599 12.8642 25.77 13.0065 26.1112C13.1489 26.4524 13.2222 26.8182 13.2222 27.1875C13.2222 27.5568 13.1489 27.9226 13.0065 28.2638C12.8642 28.605 12.6555 28.9151 12.3924 29.1762C12.1293 29.4374 11.8169 29.6446 11.4732 29.7859C11.1294 29.9273 10.761 30 10.3889 30C10.0168 30 9.64837 29.9273 9.30462 29.7859C8.96086 29.6446 8.64852 29.4374 8.38542 29.1762C8.12232 28.9151 7.91362 28.605 7.77123 28.2638C7.62884 27.9226 7.55556 27.5568 7.55556 27.1875ZM27.3889 24.375C28.1403 24.375 28.861 24.6713 29.3924 25.1988C29.9237 25.7262 30.2222 26.4416 30.2222 27.1875C30.2222 27.9334 29.9237 28.6488 29.3924 29.1762C28.861 29.7037 28.1403 30 27.3889 30C26.6374 30 25.9168 29.7037 25.3854 29.1762C24.8541 28.6488 24.5556 27.9334 24.5556 27.1875C24.5556 26.4416 24.8541 25.7262 25.3854 25.1988C25.9168 24.6713 26.6374 24.375 27.3889 24.375Z" fill="white"/>
</g>
<defs>
<clipPath id="clip0_5_286">
<rect width="34" height="30" fill="white"/>
</clipPath>
</defs>
</svg>
